<svg t="1695471640016" class="icon" viewBox="0 0 1024 1024" version="1.1"
  xmlns="http://www.w3.org/2000/svg" p-id="10878" width="200" height="200">
  <path
    d="M426.666667 466.488889H159.288889c-22.755556 0-45.511111-17.066667-45.511111-45.511111V159.288889c0-22.755556 17.066667-45.511111 45.511111-45.511111h267.377778c22.755556 0 45.511111 17.066667 45.511111 45.511111v267.377778c-5.688889 22.755556-22.755556 39.822222-45.511111 39.822222zM204.8 381.155556h182.044444V204.8H204.8v176.355556zM881.777778 466.488889h-267.377778c-22.755556 0-45.511111-17.066667-45.511111-45.511111V159.288889c0-22.755556 17.066667-45.511111 45.511111-45.511111h267.377778c22.755556 0 45.511111 17.066667 45.511111 45.511111v267.377778c0 22.755556-22.755556 39.822222-45.511111 39.822222z m-221.866667-85.333333h182.044445V204.8h-182.044445v176.355556zM426.666667 904.533333H159.288889c-22.755556 0-45.511111-17.066667-45.511111-45.511111v-267.377778c0-22.755556 17.066667-45.511111 45.511111-45.511111h267.377778c22.755556 0 45.511111 17.066667 45.511111 45.511111v267.377778c-5.688889 22.755556-22.755556 45.511111-45.511111 45.511111z m-221.866667-85.333333h182.044444v-182.044444H204.8v182.044444zM881.777778 904.533333h-267.377778c-22.755556 0-45.511111-17.066667-45.511111-45.511111v-267.377778c0-22.755556 17.066667-45.511111 45.511111-45.511111h267.377778c22.755556 0 45.511111 17.066667 45.511111 45.511111v267.377778c0 22.755556-22.755556 45.511111-45.511111 45.511111z m-221.866667-85.333333h182.044445v-182.044444h-182.044445v182.044444z"
    fill="#2196F3" p-id="10879"></path>
</svg>